<?xml version="1.0" standalone="no"?><!DOCTYPE svg PUBLIC "-//W3C//DTD SVG 1.1//EN" "http://www.w3.org/Graphics/SVG/1.1/DTD/svg11.dtd"><svg t="1597729072242" class="icon" viewBox="0 0 1024 1024" version="1.1" xmlns="http://www.w3.org/2000/svg" p-id="5307" xmlns:xlink="http://www.w3.org/1999/xlink" width="200" height="200"><defs><style type="text/css"></style></defs><path d="M49.4592 149.13536l266.24 0 0 81.92-266.24 0 0-81.92Z" p-id="5308"></path><path d="M49.4592 886.41536l860.16 0 0 81.92-860.16 0 0-81.92Z" p-id="5309"></path><path d="M49.4592 517.77536l266.24 0 0 81.92-266.24 0 0-81.92Z" p-id="5310"></path><path d="M894.19776 811.97056c-8.51968-1.76128-16.36352-6.77888-21.52448-14.6432l-99.69664-151.79776c-10.32192-15.68768-5.9392-36.80256 9.74848-47.104 15.70816-10.32192 36.78208-5.95968 47.104 9.74848l99.69664 151.79776c10.32192 15.68768 5.9392 36.80256-9.74848 47.104C911.91296 812.25728 902.71744 813.75232 894.19776 811.97056z" p-id="5311"></path><path d="M592.62976 684.05248c-171.68384-35.55328-282.03008-203.5712-246.4768-375.25504s203.5712-282.03008 375.25504-246.4768 282.03008 203.5712 246.4768 375.25504S764.3136 719.60576 592.62976 684.05248zM901.26336 423.77216c27.93472-134.90176-58.75712-266.89536-193.65888-294.85056s-266.89536 58.75712-294.85056 193.65888 58.75712 266.89536 193.65888 294.85056C741.31456 645.36576 873.32864 558.67392 901.26336 423.77216z" p-id="5312"></path></svg>