<?xml version="1.0" standalone="no"?><!DOCTYPE svg PUBLIC "-//W3C//DTD SVG 1.1//EN" "http://www.w3.org/Graphics/SVG/1.1/DTD/svg11.dtd"><svg t="1597729067120" class="icon" viewBox="0 0 1024 1024" version="1.1" xmlns="http://www.w3.org/2000/svg" p-id="5162" xmlns:xlink="http://www.w3.org/1999/xlink" width="200" height="200"><defs><style type="text/css"></style></defs><path d="M424.01 420.077c-0.276 0.147-0.426 0.222-0.48 0.247 0.058-0.026 0.138-0.06 0.233-0.099a3.05 3.05 0 0 1 0.246-0.148z m-1.706 1.498c-0.019 0.037-0.093 0.184-0.227 0.434a3.05 3.05 0 0 1 0.148-0.246c0.03-0.072 0.056-0.136 0.08-0.188z m0 0a3.249 3.249 0 0 1 0.012-0.028l-0.012 0.028z m-0.32 0.89l0.003-0.012-0.003 0.012zM423 404.083V304c0-64.617-52.383-117-117-117-64.617 0-117 52.383-117 117 0 64.617 52.383 117 117 117h100.083c7.798 0 13.032-0.271 16.245-0.672 0.401-3.213 0.672-8.447 0.672-16.245zM306 127c97.754 0 177 79.246 177 177v100.083c0 26.746-2.785 36.445-8.014 46.222-5.23 9.778-12.903 17.452-22.68 22.681-9.778 5.23-19.477 8.014-46.223 8.014H306c-97.754 0-177-79.246-177-177s79.246-177 177-177z m114.077 474.99c0.147 0.276 0.222 0.426 0.247 0.48a5.155 5.155 0 0 1-0.099-0.233 3.05 3.05 0 0 1-0.148-0.246z m1.498 1.706c0.037 0.019 0.184 0.093 0.434 0.227a3.05 3.05 0 0 1-0.246-0.148 5.777 5.777 0 0 1-0.188-0.08z m-0.028-0.012a1.435 1.435 0 0 0 0.028 0.012l-0.028-0.012zM404.083 603H304c-64.617 0-117 52.383-117 117 0 64.617 52.383 117 117 117 64.617 0 117-52.383 117-117V619.917c0-7.798-0.271-13.032-0.672-16.245-3.213-0.401-8.447-0.672-16.245-0.672zM304 897c-97.754 0-177-79.246-177-177s79.246-177 177-177h100.083c26.746 0 36.445 2.785 46.222 8.014 9.778 5.23 17.452 12.903 22.681 22.68 5.23 9.778 8.014 19.477 8.014 46.223V720c0 97.754-79.246 177-177 177z m301.923-474.99a11.547 11.547 0 0 1-0.247-0.48c0.026 0.058 0.06 0.138 0.099 0.233 0.055 0.084 0.105 0.167 0.148 0.246z m-1.498-1.706a20.659 20.659 0 0 1-0.434-0.227c0.08 0.043 0.162 0.093 0.246 0.148 0.072 0.03 0.136 0.056 0.188 0.08z m0 0a3.249 3.249 0 0 1 0.028 0.012l-0.028-0.012z m-0.89-0.32l0.012 0.003-0.012-0.003zM621.917 421H722c64.617 0 117-52.383 117-117 0-64.617-52.383-117-117-117-64.617 0-117 52.383-117 117v100.083c0 7.798 0.271 13.032 0.672 16.245 3.213 0.401 8.447 0.672 16.245 0.672zM722 127c97.754 0 177 79.246 177 177s-79.246 177-177 177H621.917c-26.746 0-36.445-2.785-46.222-8.014-9.778-5.23-17.452-12.903-22.681-22.68-5.23-9.778-8.014-19.477-8.014-46.223V304c0-97.754 79.246-177 177-177zM601.99 603.923c0.276-0.147 0.426-0.222 0.48-0.247a5.155 5.155 0 0 1-0.233 0.099 3.05 3.05 0 0 1-0.246 0.148z m1.706-1.498c0.019-0.037 0.093-0.184 0.227-0.434a3.05 3.05 0 0 1-0.148 0.246 5.777 5.777 0 0 1-0.08 0.188z m-0.012 0.028a1.435 1.435 0 0 0 0.012-0.028l-0.012 0.028zM603 619.917V720c0 64.617 52.383 117 117 117 64.617 0 117-52.383 117-117 0-64.617-52.383-117-117-117H619.917c-7.798 0-13.032 0.271-16.245 0.672-0.401 3.213-0.672 8.447-0.672 16.245zM720 897c-97.754 0-177-79.246-177-177V619.917c0-26.746 2.785-36.445 8.014-46.222 5.23-9.778 12.903-17.452 22.68-22.681 9.778-5.23 19.477-8.014 46.223-8.014H720c97.754 0 177 79.246 177 177s-79.246 177-177 177z" p-id="5163"></path></svg>