<?xml version="1.0" standalone="no"?><!DOCTYPE svg PUBLIC "-//W3C//DTD SVG 1.1//EN" "http://www.w3.org/Graphics/SVG/1.1/DTD/svg11.dtd"><svg t="1597831202753" class="icon" viewBox="0 0 1024 1024" version="1.1" xmlns="http://www.w3.org/2000/svg" p-id="6522" xmlns:xlink="http://www.w3.org/1999/xlink" width="200" height="200"><defs><style type="text/css"></style></defs><path d="M770 961c-17.673 0-32-14.327-32-32 0-112.515-61.681-215.444-160.971-268.62-10.717-5.739-18.146-16.35-19.872-28.384-1.729-12.05 2.427-24.339 11.114-32.875 37.12-36.465 57.562-85.195 57.562-137.216 0-106.053-86.28-192.333-192.333-192.333s-192.333 86.281-192.333 192.333c0 52.021 20.441 100.751 57.56 137.213 8.689 8.538 12.845 20.827 11.116 32.877-1.727 12.033-9.155 22.644-19.873 28.384C190.681 713.556 129 816.485 129 929c0 17.673-14.327 32-32 32s-32-14.327-32-32c0-125.343 63.24-240.846 167.009-308.594-13.872-17.591-25.335-36.882-34.227-57.64-13.68-31.931-20.615-65.865-20.615-100.86 0-68.469 26.663-132.84 75.078-181.255s112.786-75.078 181.255-75.078 132.84 26.663 181.255 75.078 75.078 112.786 75.078 181.255c0 34.994-6.936 68.928-20.615 100.86-8.892 20.758-20.354 40.049-34.227 57.64C738.761 688.154 802 803.657 802 929c0 17.673-14.327 32-32 32z" fill="#ffffff" p-id="6523"></path><path d="M929.698 842.192c-17.673 0-32-14.327-32-32 0-116.339-63.776-222.766-166.441-277.749-10.773-5.771-18.239-16.436-19.974-28.53-1.736-12.111 2.439-24.463 11.171-33.042 38.453-37.773 59.628-88.252 59.628-142.138 0-109.857-89.376-199.233-199.233-199.233-31.577 0-61.76 7.161-89.711 21.285-15.773 7.971-35.021 1.645-42.992-14.129s-1.646-35.022 14.129-42.993C501.257 74.975 541.151 65.5 582.849 65.5c70.312 0 136.416 27.381 186.134 77.099 49.719 49.718 77.1 115.822 77.1 186.134 0 35.936-7.122 70.784-21.17 103.574-9.273 21.648-21.271 41.744-35.817 60.036C896.308 561.913 961.7 680.97 961.7 810.193c-0.002 17.672-14.329 31.999-32.002 31.999z" fill="#ffffff" p-id="6524"></path></svg>