<?xml version="1.0" standalone="no"?><!DOCTYPE svg PUBLIC "-//W3C//DTD SVG 1.1//EN" "http://www.w3.org/Graphics/SVG/1.1/DTD/svg11.dtd"><svg t="1597831217627" class="icon" viewBox="0 0 1024 1024" version="1.1" xmlns="http://www.w3.org/2000/svg" p-id="6716" xmlns:xlink="http://www.w3.org/1999/xlink" width="200" height="200"><defs><style type="text/css"></style></defs><path d="M302.8 416.2c-8.6 0-17-4.5-21.7-12.5-6.9-12-2.8-27.2 9.2-34.2L712 126c12-6.9 27.2-2.8 34.2 9.2 6.9 12 2.8 27.2-9.2 34.2L315.2 412.8c-3.9 2.3-8.2 3.4-12.4 3.4z" fill="#ffffff" p-id="6717"></path><path d="M933.8 538.9c-4.2 0-8.5-1.1-12.5-3.4L499.5 292c-12-6.9-16.1-22.2-9.2-34.2 6.9-12 22.2-16.1 34.2-9.2l421.8 243.5c12 6.9 16.1 22.2 9.2 34.2-4.7 8.1-13.1 12.6-21.7 12.6z" fill="#ffffff" p-id="6718"></path><path d="M721.3 903.2c-13.8 0-25-11.2-25-25v-487c0-13.8 11.2-25 25-25s25 11.2 25 25v487.1c0 13.7-11.2 24.9-25 24.9z" fill="#ffffff" p-id="6719"></path><path d="M299.5 901.3c-8.6 0-17-4.5-21.7-12.5-6.9-12-2.8-27.2 9.2-34.2l421.8-243.5c12-6.9 27.2-2.8 34.2 9.2 6.9 12 2.8 27.2-9.2 34.2L312 898c-4 2.3-8.3 3.3-12.5 3.3z" fill="#ffffff" p-id="6720"></path><path d="M512 778.6c-4.2 0-8.5-1.1-12.5-3.4L77.7 531.8c-12-6.9-16.1-22.2-9.2-34.2 6.9-12 22.2-16.1 34.2-9.2L524.5 732c12 6.9 16.1 22.2 9.2 34.2-4.7 7.9-13.1 12.4-21.7 12.4z" fill="#ffffff" p-id="6721"></path><path d="M302.7 657.8c-13.8 0-25-11.2-25-25v-487c0-13.8 11.2-25 25-25s25 11.2 25 25v487.1c0 13.7-11.1 24.9-25 24.9zM593 575.8c-6.7 0-13.3-2.6-18.2-7.9l-62.2-66.3-62.8 66.4c-9.5 10-25.3 10.5-35.3 1-10-9.5-10.5-25.3-1-35.3l68-71.9c8.1-8.5 19.4-13.4 31.1-13.4h0.1c11.7 0 23.1 5 31.1 13.5l67.4 71.8c9.4 10.1 8.9 25.9-1.1 35.3-4.8 4.6-11 6.8-17.1 6.8z" fill="#ffffff" p-id="6722"></path></svg>