<?xml version="1.0" standalone="no"?><!DOCTYPE svg PUBLIC "-//W3C//DTD SVG 1.1//EN" "http://www.w3.org/Graphics/SVG/1.1/DTD/svg11.dtd"><svg t="1597831180095" class="icon" viewBox="0 0 1024 1024" version="1.1" xmlns="http://www.w3.org/2000/svg" p-id="6329" xmlns:xlink="http://www.w3.org/1999/xlink" width="200" height="200"><defs><style type="text/css"></style></defs><path d="M512 1002.366c270.423 0 490.366-219.943 490.366-490.366s-219.943-490.366-490.366-490.366c-270.423 0-490.366 219.943-490.366 490.366 0 270.423 219.943 490.366 490.366 490.366v0zM616.563 429.070l-212.732-209.127c0 0 43.268-18.028 104.563-18.028s104.563 18.028 104.563 18.028v209.127h3.606zM645.408 530.028v-295.662c0 0 43.268 18.028 86.535 61.296 43.268 43.268 61.296 86.535 61.296 86.535l-147.831 147.831zM594.93 616.563l209.127-212.732c0 0 18.028 43.268 18.028 104.563 0 64.901-18.028 104.563-18.028 104.563h-209.127v3.606zM493.972 641.803h295.662c0 0-18.028 43.268-61.296 86.535-43.268 46.873-82.93 64.901-82.93 64.901l-151.437-151.437zM407.437 591.324l212.732 209.127c0 0-43.268 18.028-104.563 18.028s-104.563-18.028-104.563-18.028v-209.127h-3.606zM382.197 493.972v295.662c0 0-43.268-18.028-86.535-61.296-43.268-43.268-61.296-86.535-61.296-86.535l147.831-147.831zM432.676 407.437l-209.127 212.732c0 0-18.028-43.268-18.028-104.563 0-64.901 18.028-104.563 18.028-104.563h209.127v-3.606zM530.028 378.592h-295.662c0 0 18.028-43.268 61.296-86.535 43.268-43.268 86.535-61.296 86.535-61.296l147.831 147.831zM530.028 378.592z" p-id="6330" fill="#ffffff"></path></svg>