<?xml version="1.0" standalone="no"?><!DOCTYPE svg PUBLIC "-//W3C//DTD SVG 1.1//EN" "http://www.w3.org/Graphics/SVG/1.1/DTD/svg11.dtd"><svg t="1597923242656" class="icon" viewBox="0 0 1024 1024" version="1.1" xmlns="http://www.w3.org/2000/svg" p-id="4447" xmlns:xlink="http://www.w3.org/1999/xlink" width="200" height="200"><defs><style type="text/css"></style></defs><path d="M627.648 716.064a17.935 17.935 0 0 1-10.688-3.552C450.048 587.776 273.504 581.44 239.808 581.44c-4.32 0-6.72 0.096-6.944 0.096-7.52 0.256-14.816-4.32-17.536-11.584-52.352-140.096-1.824-259.264 0.352-264.256a17.962 17.962 0 0 1 16.128-10.752c213.088-3.072 329.088-87.648 384.864-128.32 5.472-3.968 12.64-4.512 18.624-1.472s9.76 9.184 9.76 15.904c0 31.296 0.128 155.328 0.256 274.688 0.128 110.72 0.224 217.472 0.224 242.464a17.87 17.87 0 0 1-9.856 15.968 18.127 18.127 0 0 1-8 1.888zM244.64 545.76c42.848 0.64 204.864 10.56 365.12 117.888-0.064-46.016-0.128-125.856-0.192-207.872-0.096-92.16-0.192-187.136-0.224-240-65.024 44.768-178.912 109.312-364.736 114.656-9.792 29.312-32.704 116.48 0.064 215.36z m-12.928 35.808l-33.568-0.608c-49.28 0-88.16-62.848-88.16-143.072s38.88-143.104 88.512-143.104h37.824v35.744h-37.824c-24.96 0-52.768 44.096-52.768 107.36s27.808 107.36 52.768 107.36l33.888 0.64-0.672 35.712zM836 193.696l-29.536 23.584c43.04 57.824 69.472 135.488 69.472 220.864 0 85.408-26.432 163.04-69.472 220.864L836 682.624c48.288-64.48 78.016-150.208 78.016-244.48 0-94.208-29.728-179.968-78.016-244.416z m-126.272 113.12c18.464 39.328 29.024 84 29.024 131.36 0 47.424-10.528 92.032-29.024 131.392l30.464 24.384c23.296-46.24 36.64-99.264 36.64-155.744 0-56.448-13.344-109.472-36.64-155.744l-30.464 24.352zM319.392 773.568c-28.576 0-51.808-23.232-51.808-51.808V548.864l103.584 13.088V721.76c0 28.544-23.232 51.776-51.808 51.776z m-16.064-184.16v132.384c0 8.864 7.2 16.064 16.064 16.064s16.064-7.2 16.064-16.064v-128.32l-32.128-4.032z" p-id="4448" fill="#ffffff"></path></svg>