<?xml version="1.0" standalone="no"?><!DOCTYPE svg PUBLIC "-//W3C//DTD SVG 1.1//EN" "http://www.w3.org/Graphics/SVG/1.1/DTD/svg11.dtd"><svg t="1597815911343" class="icon" viewBox="0 0 1024 1024" version="1.1" xmlns="http://www.w3.org/2000/svg" p-id="5266" xmlns:xlink="http://www.w3.org/1999/xlink" width="200" height="200"><defs><style type="text/css"></style></defs><path d="M497.9 957.2c-19.5 0-37.8-7.6-51.6-21.4L88.2 577.7c-13.7-13.7-21.3-31.9-21.4-51.3V139.8c0-40.3 32.7-73 73-73h386.8c19.3 0.2 37.4 7.7 51 21.4l358.2 358.2c13.8 13.8 21.4 32.1 21.4 51.6s-7.6 37.8-21.4 51.6L549.5 935.9c-13.7 13.7-32.1 21.3-51.6 21.3z m-375.1-431c0 4.5 1.8 8.7 5 11.9l358.1 358.1c3.2 3.2 7.5 5 12 5s8.8-1.8 12-5L896.2 510c3.2-3.2 5-7.5 5-12s-1.8-8.8-5-12L538 127.7c-3.2-3.2-7.3-4.9-11.8-5H139.8c-9.4 0-17 7.6-17 17v386.5z" fill="#ffffff" p-id="5267"></path><path d="M340.5 433.5c-23.8 0-47.6-9.1-65.8-27.2-36.3-36.3-36.3-95.3 0-131.5 36.3-36.3 95.3-36.3 131.5 0 36.3 36.3 36.3 95.3 0 131.5-18.1 18.2-41.9 27.2-65.7 27.2z m-26.2-119.1c-14.4 14.4-14.4 37.9 0 52.3 14.4 14.4 37.9 14.4 52.3 0 14.4-14.4 14.4-37.9 0-52.3-14.4-14.4-37.8-14.4-52.3 0zM779.885 426.335l39.597 39.597-353.55 353.55-39.597-39.597z" fill="#ffffff" p-id="5268"></path></svg>