<?xml version="1.0" standalone="no"?><!DOCTYPE svg PUBLIC "-//W3C//DTD SVG 1.1//EN" "http://www.w3.org/Graphics/SVG/1.1/DTD/svg11.dtd"><svg t="1598322573046" class="icon" viewBox="0 0 1070 1024" version="1.1" xmlns="http://www.w3.org/2000/svg" p-id="4223" xmlns:xlink="http://www.w3.org/1999/xlink" width="208.984375" height="200"><defs><style type="text/css"></style></defs><path d="M951.215686 883.45098c-10.039216 0-18.823529-8.784314-18.823529-18.823529 0-112.941176-62.745098-214.588235-163.137255-267.294118-5.019608-2.509804-8.784314-7.529412-10.039216-13.803921s1.254902-12.54902 6.27451-16.313726c40.156863-37.647059 61.490196-87.843137 61.490196-143.058823 0-107.921569-87.843137-195.764706-195.764706-195.764706s-195.764706 87.843137-195.764706 195.764706c0 53.960784 22.588235 105.411765 61.490196 143.058823 5.019608 3.764706 6.27451 10.039216 6.27451 16.313726s-5.019608 11.294118-10.039215 13.803921c-100.392157 52.705882-163.137255 154.352941-163.137255 267.294118 0 10.039216-8.784314 18.823529-18.82353 18.823529s-18.823529-8.784314-18.823529-18.823529c0-119.215686 61.490196-227.137255 161.882353-288.627451-36.392157-42.666667-56.470588-95.372549-56.470588-151.843137 0-129.254902 105.411765-233.411765 233.411764-233.411765s233.411765 105.411765 233.411765 233.411765c0 56.470588-20.078431 109.176471-56.470588 151.843137 100.392157 61.490196 161.882353 169.411765 161.882353 288.627451 0 11.294118-8.784314 18.823529-18.82353 18.823529zM120.470588 833.254902c-10.039216 0-18.823529-8.784314-18.823529-18.823529 0-119.215686 61.490196-227.137255 161.882353-288.627451-36.392157-42.666667-56.470588-95.372549-56.470588-151.843138 0-129.254902 105.411765-233.411765 233.411764-233.411764 10.039216 0 18.823529 8.784314 18.82353 18.823529s-8.784314 18.823529-18.82353 18.823529c-107.921569 0-195.764706 87.843137-195.764706 195.764706 0 53.960784 22.588235 105.411765 61.490196 143.058824 5.019608 3.764706 6.27451 10.039216 6.27451 16.313725s-5.019608 11.294118-10.039215 13.803922c-100.392157 52.705882-163.137255 154.352941-163.137255 267.294118 0 10.039216-8.784314 18.823529-18.82353 18.823529z" fill="#ffffff" p-id="4224"></path><path d="M951.215686 883.45098c-10.039216 0-18.823529-8.784314-18.823529-18.823529 0-112.941176-62.745098-214.588235-163.137255-267.294118-5.019608-2.509804-8.784314-7.529412-10.039216-13.803921s1.254902-12.54902 6.27451-16.313726c40.156863-37.647059 61.490196-87.843137 61.490196-143.058823 0-107.921569-87.843137-195.764706-195.764706-195.764706s-195.764706 87.843137-195.764706 195.764706c0 53.960784 22.588235 105.411765 61.490196 143.058823 5.019608 3.764706 6.27451 10.039216 6.27451 16.313726s-5.019608 11.294118-10.039215 13.803921c-100.392157 52.705882-163.137255 154.352941-163.137255 267.294118 0 10.039216-8.784314 18.823529-18.82353 18.823529s-18.823529-8.784314-18.823529-18.823529c0-119.215686 61.490196-227.137255 161.882353-288.627451-36.392157-42.666667-56.470588-95.372549-56.470588-151.843137 0-129.254902 105.411765-233.411765 233.411764-233.411765s233.411765 105.411765 233.411765 233.411765c0 56.470588-20.078431 109.176471-56.470588 151.843137 100.392157 61.490196 161.882353 169.411765 161.882353 288.627451 0 11.294118-8.784314 18.823529-18.82353 18.823529z" fill="#ffffff" p-id="4225"></path></svg>